<?xml version="1.0" encoding="UTF-8" standalone="no"?>
<!-- Generator: Adobe Illustrator 19.0.0, SVG Export Plug-In . SVG Version: 6.00 Build 0)  -->

<svg
   xmlns:dc="http://purl.org/dc/elements/1.1/"
   xmlns:cc="http://creativecommons.org/ns#"
   xmlns:rdf="http://www.w3.org/1999/02/22-rdf-syntax-ns#"
   xmlns:svg="http://www.w3.org/2000/svg"
   xmlns="http://www.w3.org/2000/svg"
   xmlns:sodipodi="http://sodipodi.sourceforge.net/DTD/sodipodi-0.dtd"
   xmlns:inkscape="http://www.inkscape.org/namespaces/inkscape"
   version="1.1"
   id="Capa_1"
   x="0px"
   y="0px"
   viewBox="0 0 480 480"
   style="enable-background:new 0 0 480 480;"
   xml:space="preserve"
   sodipodi:docname="calendar.svg"
   inkscape:version="0.92.2 (5c3e80d, 2017-08-06)"><metadata
     id="metadata49"><rdf:RDF><cc:Work
         rdf:about=""><dc:format>image/svg+xml</dc:format><dc:type
           rdf:resource="http://purl.org/dc/dcmitype/StillImage" /></cc:Work></rdf:RDF></metadata><defs
     id="defs47" /><sodipodi:namedview
     pagecolor="#ffffff"
     bordercolor="#666666"
     borderopacity="1"
     objecttolerance="10"
     gridtolerance="10"
     guidetolerance="10"
     inkscape:pageopacity="0"
     inkscape:pageshadow="2"
     inkscape:window-width="1600"
     inkscape:window-height="877"
     id="namedview45"
     showgrid="false"
     inkscape:zoom="0.49166667"
     inkscape:cx="-13.220339"
     inkscape:cy="240"
     inkscape:window-x="-8"
     inkscape:window-y="-8"
     inkscape:window-maximized="1"
     inkscape:current-layer="Capa_1" /><g
     id="g6"
     style="fill:#00aeef;fill-opacity:1"><g
       id="g4"
       style="fill:#00aeef;fill-opacity:1"><path
         d="M440,16h-32V8c0-4.418-3.582-8-8-8s-8,3.582-8,8v8h-64V8c0-4.418-3.582-8-8-8s-8,3.582-8,8v8h-64V8c0-4.418-3.582-8-8-8    s-8,3.582-8,8v8h-64V8c0-4.418-3.582-8-8-8s-8,3.582-8,8v8H88V8c0-4.418-3.582-8-8-8s-8,3.582-8,8v8H40    C17.92,16.026,0.026,33.92,0,56v384c0.026,22.08,17.92,39.974,40,40h400c22.08-0.026,39.974-17.92,40-40V56    C479.974,33.92,462.08,16.026,440,16z M464,440c0,13.255-10.745,24-24,24H40c-13.255,0-24-10.745-24-24V112h448V440z M464,96H16    V56c0-13.255,10.745-24,24-24h32v18.224c-7.653,4.418-10.275,14.204-5.856,21.856C70.562,79.733,80.347,82.355,88,77.937    c7.653-4.418,10.275-14.204,5.856-21.856c-1.404-2.432-3.424-4.452-5.856-5.856V32h64v18.224    c-7.653,4.418-10.275,14.204-5.856,21.856c4.418,7.653,14.204,10.275,21.856,5.856c7.653-4.418,10.275-14.204,5.856-21.856    c-1.404-2.432-3.424-4.452-5.856-5.856V32h64v18.224c-7.653,4.418-10.275,14.204-5.856,21.856    c4.418,7.653,14.204,10.275,21.856,5.856c7.653-4.418,10.275-14.204,5.856-21.856c-1.404-2.432-3.424-4.452-5.856-5.856V32h64    v18.224c-7.653,4.418-10.275,14.204-5.856,21.856c4.418,7.653,14.204,10.275,21.856,5.856c7.653-4.418,10.275-14.204,5.856-21.856    c-1.404-2.432-3.424-4.452-5.856-5.856V32h64v18.224c-7.653,4.418-10.275,14.204-5.856,21.856    c4.418,7.653,14.204,10.275,21.856,5.856c7.653-4.418,10.275-14.204,5.856-21.856c-1.404-2.432-3.424-4.452-5.856-5.856V32h32    c13.255,0,24,10.745,24,24V96z"
         id="path2"
         style="fill:#00aeef;fill-opacity:1" /></g></g><g
     id="g12"
     style="fill:#00aeef;fill-opacity:1"><g
       id="g10"
       style="fill:#00aeef;fill-opacity:1"><path
         d="M432,168H48c-4.418,0-8,3.582-8,8v256c0,4.418,3.582,8,8,8h384c4.418,0,8-3.582,8-8V176C440,171.582,436.418,168,432,168z     M136,424H56v-48h80V424z M136,360H56v-48h80V360z M136,296H56v-48h80V296z M136,232H56v-48h80V232z M232,424h-80v-48h80V424z     M232,360h-80v-48h80V360z M232,296h-80v-48h80V296z M232,232h-80v-48h80V232z M328,424h-80v-48h80V424z M328,360h-80v-48h80V360z     M328,296h-80v-48h80V296z M328,232h-80v-48h80V232z M424,424h-80v-48h80V424z M424,360h-80v-48h80V360z M424,296h-80v-48h80V296z     M424,232h-80v-48h80V232z"
         id="path8"
         style="fill:#00aeef;fill-opacity:1" /></g></g><g
     id="g14" /><g
     id="g16" /><g
     id="g18" /><g
     id="g20" /><g
     id="g22" /><g
     id="g24" /><g
     id="g26" /><g
     id="g28" /><g
     id="g30" /><g
     id="g32" /><g
     id="g34" /><g
     id="g36" /><g
     id="g38" /><g
     id="g40" /><g
     id="g42" /></svg>