<?xml version="1.0" encoding="iso-8859-1"?>
<!-- Generator: Adobe Illustrator 19.0.0, SVG Export Plug-In . SVG Version: 6.00 Build 0)  -->
<svg version="1.1" id="Layer_1" xmlns="http://www.w3.org/2000/svg" xmlns:xlink="http://www.w3.org/1999/xlink" x="0px" y="0px"
	 viewBox="0 0 440 440" style="enable-background:new 0 0 440 440;" xml:space="preserve">
<g>
	<path d="M320.285,241.141c-54.826,0-99.43,44.604-99.43,99.429S265.459,440,320.285,440s99.43-44.604,99.43-99.43
		S375.111,241.141,320.285,241.141z M374.379,373.451l-21.213,21.213l-32.881-32.881l-32.88,32.88l-21.213-21.213l32.88-32.88
		l-32.88-32.88l21.213-21.213l32.88,32.88l32.881-32.881l21.213,21.213l-32.881,32.881L374.379,373.451z"/>
	<polygon points="235.285,15 235.285,85 305.285,85 	"/>
	<path d="M70.285,347.5v-30h122.632c2.58-14.281,7.517-27.75,14.382-40H70.285v-30h160.153
		c23.296-22.496,54.981-36.359,89.847-36.359V115h-115V0h-185v415h194.179c-13.613-19.299-22.095-42.465-23.422-67.5H70.285z
		 M70.285,177.5h200v30h-200V177.5z"/>
</g>
<g>
</g>
<g>
</g>
<g>
</g>
<g>
</g>
<g>
</g>
<g>
</g>
<g>
</g>
<g>
</g>
<g>
</g>
<g>
</g>
<g>
</g>
<g>
</g>
<g>
</g>
<g>
</g>
<g>
</g>
</svg>
