<?xml version="1.0" encoding="iso-8859-1"?>
<!-- Generator: Adobe Illustrator 19.0.0, SVG Export Plug-In . SVG Version: 6.00 Build 0)  -->
<svg version="1.1" id="Capa_1" xmlns="http://www.w3.org/2000/svg" xmlns:xlink="http://www.w3.org/1999/xlink" x="0px" y="0px"
	 viewBox="0 0 512 512" style="enable-background:new 0 0 512 512;" xml:space="preserve">
<path style="fill:#00C3FF;" d="M0,0v512h512V0H0z M482,160.661H351.328V30H482V160.661z M190.661,321.328V190.661h130.667v130.667
	H190.661z M321.328,351.328V482H190.661V351.328H321.328z M160.661,321.328H30V190.661h130.661V321.328z M190.661,160.661V30
	h130.667v130.661H190.661z M351.328,190.661H482v130.667H351.328V190.661z M160.661,30v130.661H30V30H160.661z M30,351.328h130.661
	V482H30V351.328z M351.328,482V351.328H482V482H351.328z"/>
<path style="fill:#00AAF0;" d="M256,0v30h65.328v130.661H256v30h65.328v130.667H256v30h65.328V482H256v30h256V0H256z M482,482
	H351.328V351.328H482V482z M482,321.328H351.328V190.661H482V321.328z M482,160.661H351.328V30H482V160.661z"/>
<g>
</g>
<g>
</g>
<g>
</g>
<g>
</g>
<g>
</g>
<g>
</g>
<g>
</g>
<g>
</g>
<g>
</g>
<g>
</g>
<g>
</g>
<g>
</g>
<g>
</g>
<g>
</g>
<g>
</g>
</svg>
