<?xml version="1.0" encoding="UTF-8" standalone="no"?>
<!-- Generator: Adobe Illustrator 19.0.0, SVG Export Plug-In . SVG Version: 6.00 Build 0)  -->

<svg
   xmlns:dc="http://purl.org/dc/elements/1.1/"
   xmlns:cc="http://creativecommons.org/ns#"
   xmlns:rdf="http://www.w3.org/1999/02/22-rdf-syntax-ns#"
   xmlns:svg="http://www.w3.org/2000/svg"
   xmlns="http://www.w3.org/2000/svg"
   xmlns:sodipodi="http://sodipodi.sourceforge.net/DTD/sodipodi-0.dtd"
   xmlns:inkscape="http://www.inkscape.org/namespaces/inkscape"
   version="1.1"
   id="Capa_1"
   x="0px"
   y="0px"
   viewBox="0 0 479.71 479.71"
   style="enable-background:new 0 0 479.71 479.71;"
   xml:space="preserve"
   sodipodi:docname="swap.svg"
   inkscape:version="0.92.2 (5c3e80d, 2017-08-06)"><metadata
     id="metadata49"><rdf:RDF><cc:Work
         rdf:about=""><dc:format>image/svg+xml</dc:format><dc:type
           rdf:resource="http://purl.org/dc/dcmitype/StillImage" /><dc:title></dc:title></cc:Work></rdf:RDF></metadata><defs
     id="defs47" /><sodipodi:namedview
     pagecolor="#ffffff"
     bordercolor="#666666"
     borderopacity="1"
     objecttolerance="10"
     gridtolerance="10"
     guidetolerance="10"
     inkscape:pageopacity="0"
     inkscape:pageshadow="2"
     inkscape:window-width="1600"
     inkscape:window-height="877"
     id="namedview45"
     showgrid="false"
     inkscape:zoom="0.4919639"
     inkscape:cx="-13.212351"
     inkscape:cy="239.855"
     inkscape:window-x="-8"
     inkscape:window-y="-8"
     inkscape:window-maximized="1"
     inkscape:current-layer="Capa_1" /><g
     id="g6"
     style="fill:#00aeef;fill-opacity:1"><g
       id="g4"
       style="fill:#00aeef;fill-opacity:1"><path
         d="M469.936,328.847c-0.96-0.927-1.977-1.792-3.045-2.592c-13.381-8.971-31.276-7.013-42.4,4.64l-10.08,10.08    c-3.469,3.481-6.383,7.474-8.64,11.84l-6.24,12V66.575c0.634-16.247-10.62-30.552-26.56-33.76    c-17.486-2.564-33.74,9.534-36.303,27.02c-0.242,1.649-0.354,3.314-0.337,4.98v299.52l-4.32-9.44    c-2.335-5.046-5.529-9.648-9.44-13.6l-10.56-10.56c-11.124-11.653-29.019-13.611-42.4-4.64    c-14.259,10.441-17.355,30.464-6.914,44.724c0.844,1.152,1.764,2.247,2.754,3.276l80,80c12.49,12.504,32.751,12.515,45.255,0.025    c0.008-0.008,0.017-0.017,0.025-0.025l80-80C483.006,361.38,482.65,341.122,469.936,328.847z"
         id="path2"
         style="fill:#00aeef;fill-opacity:1" /></g></g><g
     id="g12"
     style="fill:#00aeef;fill-opacity:1"><g
       id="g10"
       style="fill:#00aeef;fill-opacity:1"><path
         d="M214.411,104.655l-78.88-79.04C123.041,13.111,102.78,13.1,90.276,25.59c-0.008,0.008-0.017,0.017-0.025,0.025l-80,80    c-11.653,11.124-13.611,29.019-4.64,42.4c10.441,14.259,30.464,17.355,44.724,6.914c1.152-0.844,2.247-1.764,3.276-2.754    l10.88-10.88c5.215-5.219,9.158-11.57,11.52-18.56l4.32-9.92v302.24c-0.607,16.347,10.812,30.689,26.88,33.76    c17.445,2.829,33.881-9.019,36.71-26.465c0.297-1.83,0.434-3.682,0.41-5.535v-304l3.2,9.12c2.403,6.746,6.284,12.869,11.36,17.92    l11.52,11.52c12.492,12.501,32.753,12.509,45.255,0.017c0.621-0.621,1.217-1.267,1.785-1.937    C228.183,135.984,226.864,116.552,214.411,104.655z"
         id="path8"
         style="fill:#00aeef;fill-opacity:1" /></g></g><g
     id="g14" /><g
     id="g16" /><g
     id="g18" /><g
     id="g20" /><g
     id="g22" /><g
     id="g24" /><g
     id="g26" /><g
     id="g28" /><g
     id="g30" /><g
     id="g32" /><g
     id="g34" /><g
     id="g36" /><g
     id="g38" /><g
     id="g40" /><g
     id="g42" /></svg>